PathFileType	4	(X/Y/Z)	/Users/niels/Desktop/University/Third Semester/Perception and Action/Exam/Gymnastics Motion Tracking/Code for Gym Tracking/Analyzed Data/Webcam_Backflip/id7_3_trajectory_Sports2D/id7_3_trajectory_Sports2D_px_person00.trc
DataRate	CameraRate	NumFrames	NumMarkers	Units	OrigDataRate	OrigDataStartFrame	OrigNumFrames
29.8125	29.8125	10	22	m	29.8125	40	160
Frame#	Time	Hip			RHip			RKnee			RAnkle			RBigToe			RSmallToe			RHeel			LHip			LKnee			LAnkle			LBigToe			LSmallToe			LHeel			Neck			Head			Nose			RShoulder			RElbow			RWrist			LShoulder			LElbow			LWrist		
		X1	Y1	Z1	X2	Y2	Z2	X3	Y3	Z3	X4	Y4	Z4	X5	Y5	Z5	X6	Y6	Z6	X7	Y7	Z7	X8	Y8	Z8	X9	Y9	Z9	X10	Y10	Z10	X11	Y11	Z11	X12	Y12	Z12	X13	Y13	Z13	X14	Y14	Z14	X15	Y15	Z15	X16	Y16	Z16	X17	Y17	Z17	X18	Y18	Z18	X19	Y19	Z19	X20	Y20	Z20	X21	Y21	Z21	X22	Y22	Z22
40	1.341719077568134	0.9960924397520986	-0.5310785546922708	0.0	0.9992917787943599	-0.5331230440779743	0.0	1.0875486599540107	-0.5443495627854633	0.0	1.0488217313669412	-0.6546188575105876	0.0	1.0681137479925844	-0.678657457494585	0.0	1.0647034227353804	-0.6820634510548438	0.0	1.035238657050186	-0.667153802321283	0.0	0.9885590215851247	-0.5301548663783334	0.0	1.0742603259946695	-0.5413516044617313	0.0	1.0421675622671627	-0.6427741924956083	0.0	1.0672789407355905	-0.6690625016948039	0.0	1.0577137073442349	-0.6697503381390003	0.0	1.026771524090704	-0.6555694679133954	0.0	0.9177330394121023	-0.41066830871582893	0.0	0.8718324195002687	-0.35375259050400376	0.0	0.9158322235386478	-0.36376579445502955	0.0	0.9366127104072404	-0.4138480145934838	0.0	1.0021995428978796	-0.388241543275527	0.0	1.0378646464178165	-0.32882738569974285	0.0	0.9058690670054462	-0.4281533455167851	0.0	0.9463251577463689	-0.42946547993173745	0.0	0.970951294606277	-0.39653037312459305	0.0
41	1.3752620545073373	1.002443094284354	-0.5070769974256439	0.0	1.0069324219784932	-0.5094254160208502	0.0	1.090615095730943	-0.48196096837250985	0.0	1.0717545633242254	-0.5895385506820395	0.0	1.093801008848249	-0.6060212288384207	0.0	1.0922825053145446	-0.6104905518379851	0.0	1.0608681297015399	-0.6033369505805785	0.0	0.9941289830805778	-0.5059623998604513	0.0	1.0777014522160837	-0.480862899632569	0.0	1.0646683435923359	-0.5784103610845548	0.0	1.0910065917006024	-0.5971735582055506	0.0	1.0827027851711877	-0.5994613897621219	0.0	1.0530273693528855	-0.5930238938970311	0.0	0.9103629030992374	-0.3987302238830258	0.0	0.859059092720769	-0.3476178953958719	0.0	0.9038837369849283	-0.35255362771425597	0.0	0.931977764221274	-0.39885322883309265	0.0	0.9975471944604896	-0.36868770171604837	0.0	1.0345207075039236	-0.30933220061588196	0.0	0.8990698364276994	-0.4168868898090771	0.0	0.9338439680444726	-0.413301738968529	0.0	0.9554315088806501	-0.38275871470026823	0.0
42	1.4088050314465406	1.011716631895227	-0.4841094337036622	0.0	1.017655372720098	-0.48620341180323423	0.0	1.0836143735741623	-0.4241693046029142	0.0	1.0917823464611545	-0.5219543663204301	0.0	1.1169783719368676	-0.5264890218083901	0.0	1.1176835094235293	-0.5321898436713833	0.0	1.0850040425203542	-0.5370503228369685	0.0	1.0027880309490664	-0.48299558057660663	0.0	1.071123348071556	-0.4258659304800861	0.0	1.0838682133147013	-0.5130220020964089	0.0	1.1112890763684171	-0.5201139398356608	0.0	1.1046358924598862	-0.5235701829721207	0.0	1.0783260011438442	-0.5291190669436442	0.0	0.9060588908072731	-0.39346742334882084	0.0	0.8496729159262585	-0.3511278498663354	0.0	0.8940854590085354	-0.3499926757318452	0.0	0.9297534909416363	-0.39039242347575376	0.0	0.9951796741337927	-0.35604254859114215	0.0	1.0340990688510456	-0.29846010817160745	0.0	0.8975475583817862	-0.4112741037425036	0.0	0.9313880499884925	-0.3992374739436305	0.0	0.9527119395621028	-0.3717989887196648	0.0
43	1.442348008385744	1.023293375087469	-0.461029519242909	0.0	1.0303753254042811	-0.4621422273083818	0.0	1.0676560604852317	-0.37586029643577223	0.0	1.1051519603331363	-0.4548908489000985	0.0	1.1310236233873612	-0.4450794188441781	0.0	1.134236045957948	-0.45174398733557747	0.0	1.1032733127018226	-0.4705083359412335	0.0	1.0138297015778142	-0.4602448118195216	0.0	1.0557971834403073	-0.3805871459359404	0.0	1.0957514840525462	-0.4491739360467961	0.0	1.122389578217244	-0.4425815462592176	0.0	1.1171532604177057	-0.44676037492052684	0.0	1.098055840864653	-0.46520898960978496	0.0	0.9056097093257098	-0.39496588299162966	0.0	0.8448219748799433	-0.364673496509188	0.0	0.8871666598171134	-0.35646289546134663	0.0	0.9304930109646674	-0.38847847038037014	0.0	0.9946784551764473	-0.3491843352781543	0.0	1.0336833138277863	-0.29339037298871407	0.0	0.9015538930831917	-0.4109884805349375	0.0	0.9383456848996485	-0.38742449906731397	0.0	0.9606712184556563	-0.3633868163404756	0.0
44	1.4758909853249473	1.0356225118807993	-0.4369935288910246	0.0	1.0432056651529107	-0.4364783209095884	0.0	1.0454567398500727	-0.34016885006179415	0.0	1.1087207581909355	-0.39167266407009066	0.0	1.1306789006401685	-0.3681314598398832	0.0	1.1364243995074446	-0.37505782914087626	0.0	1.111519030378389	-0.4062687543622097	0.0	1.0257018056522824	-0.43697579841548945	0.0	1.0346200084284727	-0.3474780695541786	0.0	1.0973798178855152	-0.38977906431882287	0.0	1.1201312863489832	-0.3698308633803515	0.0	1.115734490186245	-0.3744292597481259	0.0	1.1077728200274866	-0.40328536765510126	0.0	0.9098468773747417	-0.40247843160927355	0.0	0.8462757667480214	-0.38728003269665245	0.0	0.8844330470758234	-0.37137302792568233	0.0	0.9349635809247195	-0.39237741192131936	0.0	0.9954387640050427	-0.34677809385762204	0.0	1.0306568413878079	-0.29189407104906734	0.0	0.9107122177667716	-0.4152327003362907	0.0	0.9504815553541872	-0.37924719428867587	0.0	0.9731346769153556	-0.3593711171950533	0.0
45	1.5094339622641506	1.0467363606034248	-0.41195342465339185	0.0	1.0541050937977867	-0.40948430675459263	0.0	1.0204198933420825	-0.3183174381153677	0.0	1.1007350508846363	-0.335983933554093	0.0	1.1134970554002468	-0.3024834209892131	0.0	1.1213916306618312	-0.3086666960379253	0.0	1.1069509816086633	-0.347715943399327	0.0	1.0364163363646517	-0.4130848054767864	0.0	1.011022422733254	-0.3271637356689218	0.0	1.087840503298816	-0.33821560618348795	0.0	1.1029025504650258	-0.30743572689968096	0.0	1.0991713691111145	-0.31230049998746306	0.0	1.10454001312816	-0.3465898345189723	0.0	0.9196348589468807	-0.4144014103130411	0.0	0.8560607449154651	-0.4165008990390004	0.0	0.8876702884655188	-0.3930391952547222	0.0	0.9439689784008605	-0.4005497838944945	0.0	0.9969201041095277	-0.34752922482409493	0.0	1.0235590299600899	-0.2929798007460747	0.0	0.9246637951629658	-0.4227152288697621	0.0	0.963749600595004	-0.3752005481885522	0.0	0.9850642894822761	-0.36193892922906784	0.0
46	1.542976939203354	1.0548289860312439	-0.3868262627773067	0.0	1.061378427169353	-0.3825403248635982	0.0	0.9959935892379919	-0.30993813911676515	0.0	1.0812062657644572	-0.2916489428890072	0.0	1.0804595672194346	-0.2542534857510073	0.0	1.0897209212810526	-0.2586736812085354	0.0	1.0889840467352012	-0.29893500041970866	0.0	1.0441868609095726	-0.38936148844260915	0.0	0.9884926793110498	-0.3190131410480928	0.0	1.068159443026848	-0.29776489707330944	0.0	1.0719148930924087	-0.2605816609750275	0.0	1.0694906891709313	-0.26571171188640585	0.0	1.0878606669359272	-0.29898807758446966	0.0	0.9356429106881434	-0.4283469900528722	0.0	0.875759925422044	-0.44842691811178437	0.0	0.8986809756944024	-0.4185958207491616	0.0	0.9579520986140363	-0.41079132159249876	0.0	0.9987518264271734	-0.35044418669573374	0.0	1.0123769949706518	-0.29715742290771946	0.0	0.9433149544699028	-0.4317484103470143	0.0	0.9765695719789281	-0.3743270567130102	0.0	0.9950235421915837	-0.37240957427899773	0.0
47	1.5765199161425574	1.0587255264553013	-0.36328989164514197	0.0	1.0640016706235151	-0.3577332100058942	0.0	0.9751979130193333	-0.31337570809663895	0.0	1.0517965891867478	-0.2621882282034065	0.0	1.0357873636872525	-0.2278323932297767	0.0	1.0453594400266928	-0.2297529496306105	0.0	1.0592447386779231	-0.26403952928862723	0.0	1.048095780008935	-0.36740167152509445	0.0	0.9700993882746343	-0.321575886358807	0.0	1.0403552585096991	-0.2710473210284549	0.0	1.0306804725530894	-0.23330247295804682	0.0	1.0304103108442266	-0.23880047810229815	0.0	1.059537331533911	-0.2641900587752671	0.0	0.957830335945279	-0.4415736286578891	0.0	0.9056655434498004	-0.4782596785372086	0.0	0.918545900465782	-0.4442756908091946	0.0	0.9766587157148664	-0.42074472109207034	0.0	1.0008999483937666	-0.35502900732380427	0.0	0.9984060291821827	-0.3061021208468659	0.0	0.9664979142197416	-0.4405693018840652	0.0	0.9892547642338694	-0.3758820813187893	0.0	1.0042763673086343	-0.39018628194469557	0.0
48	1.6100628930817606	1.0581381999470283	-0.3432216296903243	0.0	1.061761408360788	-0.3372141551386517	0.0	0.9600525523144449	-0.3260746994766659	0.0	1.0153822956846792	-0.25016990916993487	0.0	0.9857265760040149	-0.22538334840357233	0.0	0.9944732083607503	-0.22443748942074293	0.0	1.0208900931411664	-0.24630807530227153	0.0	1.0483135480703971	-0.348916641758925	0.0	0.9577252331977664	-0.3326678899985378	0.0	1.0069232512435429	-0.2599541105239375	0.0	0.9841627381000255	-0.22821176197632	0.0	0.9861729319313368	-0.23400027162872078	0.0	1.022903452998602	-0.2454554495546352	0.0	0.9850829895784511	-0.4516820854670657	0.0	0.9442744465247883	-0.5016985670750707	0.0	0.9470006412867619	-0.4663926097138273	0.0	0.9991484926459103	-0.42857864578469873	0.0	1.0037836707781322	-0.36123565230844035	0.0	0.983995747994164	-0.32142988325539634	0.0	0.9935237165152332	-0.44751465926697165	0.0	1.0029682312012975	-0.38006101142026666	0.0	1.0156908553650585	-0.4122488557641802	0.0
49	1.6436058700209641	1.0536014921159609	-0.3282455426943002	0.0	1.0552448223253612	-0.32274542058598193	0.0	0.9512522270345785	-0.34516883049882996	0.0	0.9756840812214445	-0.2565955682852676	0.0	0.9369754380613686	-0.2466130920993309	0.0	0.9438459557396252	-0.2427419034290084	0.0	0.9780167365853598	-0.24752949789191822	0.0	1.0456269276876549	-0.33517510512087934	0.0	0.9517360580055132	-0.34974596061591706	0.0	0.9710207290223212	-0.2656072373331879	0.0	0.938073244891688	-0.24610637720440534	0.0	0.9417693259510133	-0.2516355800522512	0.0	0.9822636708302499	-0.24521108925263274	0.0	1.0153644553273204	-0.4571219626929161	0.0	0.9885831955250498	-0.5163019955799094	0.0	0.9822559634944965	-0.48239886978679447	0.0	1.0240406173392498	-0.43334725855628314	0.0	1.0080880709360769	-0.3691803274484771	0.0	0.9724140676292329	-0.3433925798973811	0.0	1.022903881614866	-0.4510381021289001	0.0	1.0185814772525221	-0.38704075872802074	0.0	1.032617611739016	-0.43425670158442026	0.0
